<svg width="69" height="39" viewBox="0 0 69 39" fill="none" xmlns="http://www.w3.org/2000/svg">
<path d="M8.928 32.352C8.26667 32.352 7.54133 32.2347 6.752 32C5.96267 31.7653 5.20533 31.4027 4.48 30.912C3.776 30.4 3.2 29.7493 2.752 28.96C2.304 28.1707 2.08 27.232 2.08 26.144C2.08 25.824 2.09067 25.248 2.112 24.416C2.13333 23.5627 2.16533 22.5707 2.208 21.44C2.25067 20.3093 2.29333 19.1253 2.336 17.888C2.4 16.6507 2.45333 15.4773 2.496 14.368C2.53867 13.2373 2.58133 12.2773 2.624 11.488C2.66667 10.6773 2.688 10.144 2.688 9.888C2.70933 9.376 2.83733 9.056 3.072 8.928C3.328 8.77867 3.60533 8.704 3.904 8.704C4.43733 8.704 4.98133 8.84267 5.536 9.12C6.112 9.376 6.60267 9.856 7.008 10.56C7.41333 11.2427 7.616 12.2347 7.616 13.536C7.616 14.0267 7.57333 14.8693 7.488 16.064C7.40267 17.2373 7.30667 18.5813 7.2 20.096C7.11467 21.6107 7.072 23.1467 7.072 24.704C7.072 25.4933 7.22133 26.1653 7.52 26.72C7.84 27.2747 8.33067 27.552 8.992 27.552C9.58933 27.552 10.08 27.3813 10.464 27.04C10.8693 26.6987 11.1573 25.9733 11.328 24.864C11.392 24.5227 11.4453 23.968 11.488 23.2C11.5307 22.432 11.5733 21.5467 11.616 20.544C11.68 19.5413 11.7333 18.496 11.776 17.408C11.8187 16.32 11.8613 15.2747 11.904 14.272C11.9467 13.2693 11.9787 12.3947 12 11.648C12.0213 10.9013 12.0427 10.368 12.064 10.048C12.1067 9.45067 12.2453 9.07733 12.48 8.928C12.7147 8.77867 12.9813 8.704 13.28 8.704C13.8133 8.704 14.3787 8.832 14.976 9.088C15.5947 9.344 16.1067 9.77066 16.512 10.368C16.9173 10.9653 17.0987 11.7973 17.056 12.864C17.0347 13.888 16.9707 15.1147 16.864 16.544C16.7573 17.9733 16.6293 19.5093 16.48 21.152C16.352 22.7947 16.192 24.4373 16 26.08C15.8507 27.36 15.52 28.416 15.008 29.248C14.5173 30.0587 13.9093 30.688 13.184 31.136C12.48 31.584 11.7547 31.8933 11.008 32.064C10.2613 32.256 9.568 32.352 8.928 32.352ZM32.391 32.448C30.9617 32.448 29.9697 32.032 29.415 31.2C28.8817 30.368 28.615 29.3013 28.615 28C28.615 26.9973 28.743 25.8987 28.999 24.704C29.255 23.488 29.5537 22.2613 29.895 21.024H29.831C28.7643 22.752 27.7723 24.5653 26.855 26.464C25.9377 28.3413 25.0843 30.304 24.295 32.352C23.143 32.352 22.247 31.9573 21.607 31.168C20.9457 30.8693 20.455 30.432 20.135 29.856C19.8363 29.2587 19.687 28.6293 19.687 27.968C19.687 26.0053 19.8043 23.84 20.039 21.472C20.2737 19.104 20.6683 16.64 21.223 14.08C21.287 13.6747 21.511 13.472 21.895 13.472C22.471 13.472 23.015 13.6107 23.527 13.888C24.039 14.144 24.455 14.5173 24.775 15.008C25.095 15.4987 25.255 16.0747 25.255 16.736C25.255 16.8427 25.255 16.96 25.255 17.088C25.255 17.216 25.2337 17.344 25.191 17.472L23.591 25.728H23.655C24.1883 24.512 24.7217 23.3067 25.255 22.112C25.8097 20.896 26.3643 19.7973 26.919 18.816C27.495 17.8133 28.0923 17.0133 28.711 16.416C29.3297 15.7973 29.9697 15.488 30.631 15.488C31.1643 15.488 31.7297 15.7653 32.327 16.32C32.9243 16.4907 33.3723 16.7787 33.671 17.184C33.991 17.568 34.151 17.9947 34.151 18.464C34.151 18.528 34.151 18.592 34.151 18.656C34.151 18.72 34.1403 18.784 34.119 18.848C34.0337 19.3173 33.9377 19.9787 33.831 20.832C33.7243 21.664 33.6177 22.6133 33.511 23.68C33.4257 24.7253 33.351 25.824 33.287 26.976C33.223 28.1067 33.191 29.2053 33.191 30.272C33.191 30.6133 33.2017 30.9547 33.223 31.296C33.2657 31.6373 33.3083 31.9573 33.351 32.256C33.031 32.384 32.711 32.448 32.391 32.448ZM39.0965 32.286C38.8032 32.286 38.4438 32.2053 38.0185 32.044C37.6078 31.8973 37.2412 31.6333 36.9185 31.252C36.6105 30.8707 36.4565 30.35 36.4565 29.69C36.4565 29.0153 36.4932 28.1647 36.5665 27.138C36.6398 26.0967 36.7205 24.96 36.8085 23.728C36.9112 22.496 36.9992 21.242 37.0725 19.966C37.1458 18.69 37.1825 17.4727 37.1825 16.314C37.1825 16.1967 37.2705 16.116 37.4465 16.072C37.6225 16.0133 37.8498 15.984 38.1285 15.984C38.4218 15.984 38.7518 16.072 39.1185 16.248C39.4998 16.4093 39.8298 16.6953 40.1085 17.106C40.3872 17.502 40.5265 18.0667 40.5265 18.8C40.5265 19.108 40.5045 19.636 40.4605 20.384C40.4312 21.132 40.3872 22.0047 40.3285 23.002C40.2698 23.9993 40.1965 25.0407 40.1085 26.126C40.0352 27.2113 39.9545 28.2673 39.8665 29.294C39.7785 30.306 39.6832 31.1933 39.5805 31.956C39.5512 32.176 39.3898 32.286 39.0965 32.286ZM48.1459 32.48C47.6766 32.48 47.1113 32.3307 46.4499 32.032C45.8099 31.7547 45.3299 31.2533 45.0099 30.528C44.4553 30.1867 44.0393 29.728 43.7619 29.152C43.4846 28.5547 43.3459 27.8613 43.3459 27.072C43.3459 26.56 43.3566 25.8133 43.3779 24.832C43.3993 23.8507 43.4313 22.72 43.4739 21.44C43.5379 20.16 43.6233 18.816 43.7299 17.408C43.1539 17.152 42.6313 16.7787 42.1619 16.288C41.7139 15.776 41.4899 15.36 41.4899 15.04C41.4899 14.784 41.5326 14.5813 41.6179 14.432C41.7246 14.2827 41.9166 14.1973 42.1939 14.176C42.7913 14.0907 43.4099 14.016 44.0499 13.952C44.1353 13.2693 44.2206 12.608 44.3059 11.968C44.3913 11.328 44.4873 10.6987 44.5939 10.08C44.6579 9.73867 44.7539 9.51467 44.8819 9.408C45.0099 9.28 45.1913 9.216 45.4259 9.216C46.0659 9.216 46.6846 9.376 47.2819 9.696C47.9006 10.016 48.4019 10.3787 48.7859 10.784C49.1913 11.1893 49.3726 11.52 49.3299 11.776C49.2233 12.416 49.1379 13.0133 49.0739 13.568C49.3726 13.568 49.6499 13.568 49.9059 13.568C50.2259 13.568 50.5993 13.664 51.0259 13.856C51.4739 14.0267 51.9006 14.2507 52.3059 14.528C52.7113 14.8053 53.0526 15.104 53.3299 15.424C53.6073 15.7227 53.7459 16 53.7459 16.256C53.7459 16.64 53.6499 16.8853 53.4579 16.992C53.2659 17.0987 52.9673 17.152 52.5619 17.152C52.1993 17.152 51.6446 17.184 50.8979 17.248C50.1513 17.2907 49.3619 17.344 48.5299 17.408C48.2953 19.2213 48.0819 21.024 47.8899 22.816C47.7193 24.608 47.6019 26.4107 47.5379 28.224C48.3486 27.9893 48.9993 27.6693 49.4899 27.264C49.9806 26.8373 50.3753 26.4427 50.6739 26.08C50.9939 25.696 51.2926 25.4507 51.5699 25.344C51.6979 25.28 51.8366 25.248 51.9859 25.248C52.3699 25.248 52.6899 25.44 52.9459 25.824C53.2233 26.208 53.3619 26.688 53.3619 27.264C53.3619 27.904 53.1699 28.5333 52.7859 29.152C52.4233 29.7707 51.9539 30.336 51.3779 30.848C50.8019 31.3387 50.2259 31.7333 49.6499 32.032C49.0739 32.3307 48.5726 32.48 48.1459 32.48ZM58.9947 32.384C58.3974 32.384 57.7894 32.2027 57.1707 31.84C56.5734 31.456 56.008 30.9547 55.4747 30.336C54.9627 29.696 54.5467 28.992 54.2267 28.224C53.9067 27.456 53.7467 26.688 53.7467 25.92C53.7467 24.4053 53.96 22.9013 54.3867 21.408C54.8347 19.9147 55.4427 18.56 56.2107 17.344C57 16.128 57.928 15.1573 58.9947 14.432C60.0614 13.7067 61.2134 13.344 62.4507 13.344C63.0054 13.344 63.6134 13.5147 64.2747 13.856C64.936 14.176 65.416 14.656 65.7147 15.296C66.5254 15.68 67.1227 16.256 67.5067 17.024C67.8907 17.792 68.04 18.496 67.9547 19.136C67.8907 19.648 67.6667 20.2347 67.2827 20.896C66.8987 21.536 66.408 22.1973 65.8107 22.88C65.2134 23.5413 64.552 24.16 63.8267 24.736C63.1014 25.2907 62.3547 25.7493 61.5867 26.112C60.84 26.4533 60.1147 26.624 59.4107 26.624C59.1547 26.624 58.8774 26.5387 58.5787 26.368C58.6427 27.0507 58.8347 27.5413 59.1547 27.84C59.496 28.1173 59.944 28.256 60.4987 28.256C61.3094 28.256 62.2054 27.968 63.1867 27.392C64.168 26.816 65.2134 26.048 66.3227 25.088C66.8134 25.3227 67.1867 25.632 67.4427 26.016C67.6987 26.3787 67.7947 26.8373 67.7307 27.392C67.6454 28.032 67.304 28.6507 66.7067 29.248C66.1307 29.824 65.3947 30.3573 64.4987 30.848C63.624 31.3173 62.696 31.6907 61.7147 31.968C60.7547 32.2453 59.848 32.384 58.9947 32.384ZM63.7627 16.864C62.9307 16.9067 62.1734 17.2907 61.4907 18.016C60.808 18.7413 60.232 19.6373 59.7627 20.704C59.2934 21.7493 58.952 22.7947 58.7387 23.84C59.4427 23.6907 60.104 23.328 60.7227 22.752C61.3627 22.1547 61.9174 21.4827 62.3867 20.736C62.8774 19.968 63.2507 19.232 63.5067 18.528C63.7627 17.8027 63.848 17.248 63.7627 16.864Z" fill="black"/>
<path d="M19.625 8.21875C20.1602 8.21875 20.6954 8.21875 23.281 8.28917C25.8665 8.35959 30.4862 8.50044 35.2459 8.64555" stroke="black" stroke-width="2" stroke-linecap="round"/>
<path d="M52.0625 8.64844C52.7949 8.64844 54.8341 8.64844 57.4368 8.66252C58.9459 8.7338 59.9105 8.79013 61.0624 8.89001C61.5025 8.90452 62.1503 8.90452 62.8179 8.90452" stroke="black" stroke-width="2" stroke-linecap="round"/>
<path d="M34.0234 8.59375C34.7743 8.59375 36.3981 8.64548 38.3524 8.68506C38.7767 8.69799 38.9061 8.72385 39.4899 8.73717C40.0738 8.7505 41.1083 8.7505 42.1742 8.7505" stroke="black" stroke-width="2" stroke-linecap="round"/>
<path d="M63.7099 16.6484C63.4492 16.7967 62.7774 17.3203 62.1392 17.9006C61.4952 18.4862 60.7955 19.5628 59.9489 20.5026C58.8921 21.6759 58.0946 22.8255 57.6811 23.4064C57.3572 23.8614 59.0631 22.9423 59.7001 22.53C60.5916 21.953 61.1595 21.2211 61.9656 20.3965C62.4358 19.7583 62.8088 19.2348 63.2964 18.673C63.3728 18.5225 63.3728 18.3742 63.3728 18.2214" stroke="black" stroke-width="2" stroke-linecap="round"/>
<path d="M39.6501 5.73657C39.598 5.67112 39.3622 5.48816 39.1775 5.19223C39.0122 4.92744 38.9671 4.62068 38.9468 4.20054C38.9205 3.6557 39.2416 3.13571 39.4979 2.80686C39.7886 2.43388 40.1083 2.17596 40.3983 1.9585C40.6413 1.77628 40.8456 1.74104 40.9505 1.72783C41.0029 1.72123 41.0554 1.74065 41.0887 1.77988C41.5382 2.30916 41.1224 3.71061 41.0698 4.00713C41.019 4.29329 40.8732 4.55207 40.7218 4.75672C40.5796 4.94895 40.4395 5.14432 40.2423 5.30875C40.132 5.40077 40.0318 5.48658 39.9009 5.52601C39.8243 5.54908 39.7179 5.53942 39.6708 5.50689C39.4924 5.38375 39.755 5.00237 39.7749 4.62088C39.8078 4.1345 39.8468 3.79184 39.932 3.70647C39.9781 3.67316 40.0302 3.66014 40.1627 3.64674" stroke="#FF4246" stroke-width="2" stroke-linecap="round"/>
<path d="M40.0818 6.0176C39.9643 6.0176 39.7017 5.99157 39.4389 5.91942C39.0937 5.82465 38.9525 5.54522 38.7614 5.33505C38.5474 5.09962 38.5834 4.77001 38.4852 4.55944C38.3897 4.3546 38.4257 3.99558 38.5302 3.70537C38.6764 3.29925 39.107 3.04924 39.5085 2.71329C39.987 2.3128 40.1993 2.0753 40.3702 1.87164C40.5887 1.6113 40.8822 1.48383 41.0997 1.43041C41.1967 1.40658 41.2253 1.9779 41.2448 2.75252C41.2572 3.24422 41.3436 3.8836 41.3306 4.6389C41.3215 5.16678 41.2127 5.37251 41.0289 5.67475C40.9516 5.80185 40.8183 5.83346 40.7135 5.85317C40.6102 5.87259 40.5029 5.82084 40.4045 5.73567C40.2124 5.56938 40.096 5.24397 39.9966 4.92773C39.9124 4.65978 39.8192 4.32365 39.773 3.95536C39.7566 3.82452 39.7793 3.71799 39.8186 3.6066C39.9113 3.34329 40.2639 3.1147 40.5997 2.90315C40.6855 2.86352 40.7766 2.82449 40.856 2.79136C40.9355 2.75824 41.0005 2.73222 41.0676 2.7054" stroke="#980F11" stroke-width="2" stroke-linecap="round"/>
</svg>
